Coordinates
version=1
nRows=27
nColumns=12
inDegrees=yes

Units are S.I. units (second, meters, Newtons, ...)
Angles are in degrees

endheader
time	SC_y	SC_z	SC_x	AC_y	AC_z	AC_x	GH_y	GH_z	GH_yy	EL_x	PS_y
       0.0              -28.79          35.85          9.299           35.3         -12.39         -17.66          43.58          46.22         -32.82          94.44          123.3
  0.005319              -28.79          35.84          9.306           35.3         -12.39         -17.65          43.59          46.22          -32.8          94.44          123.3
   0.01064              -28.79          35.84          9.315           35.3         -12.39         -17.65           43.6          46.23         -32.78          94.45          123.3
   0.01596              -28.79          35.83          9.324          35.31         -12.39         -17.65           43.6          46.23         -32.75          94.45          123.3
   0.02128              -28.78          35.82          9.333          35.31         -12.39         -17.64          43.61          46.24         -32.72          94.45          123.3
    0.0266              -28.78          35.81          9.343          35.31         -12.39         -17.64          43.62          46.25          -32.7          94.45          123.3
   0.03191              -28.78          35.81          9.354          35.31         -12.38         -17.63          43.63          46.25         -32.67          94.46          123.3
   0.03723              -28.77           35.8          9.365          35.31         -12.38         -17.63          43.64          46.26         -32.63          94.46          123.3
   0.04255              -28.77          35.79          9.378          35.31         -12.38         -17.62          43.65          46.27          -32.6          94.46          123.3
   0.04787              -28.77          35.78          9.391          35.31         -12.38         -17.61          43.67          46.28         -32.56          94.47          123.3
   0.05319              -28.76          35.77          9.405          35.31         -12.38         -17.61          43.68          46.29         -32.52          94.47          123.3
   0.05851              -28.76          35.76           9.42          35.31         -12.37          -17.6          43.69           46.3         -32.48          94.48          123.3
   0.06383              -28.75          35.74          9.437          35.32         -12.37         -17.59          43.71          46.31         -32.43          94.48          123.3
   0.06915              -28.75          35.73          9.455          35.32         -12.37         -17.58          43.73          46.33         -32.38          94.49          123.3
   0.07447              -28.74          35.72          9.474          35.32         -12.36         -17.57          43.74          46.34         -32.33          94.49          123.3
   0.07979              -28.74           35.7          9.495          35.32         -12.36         -17.56          43.76          46.35         -32.27           94.5          123.3
    0.0851              -28.73          35.68          9.517          35.32         -12.36         -17.55          43.78          46.37         -32.21          94.51          123.3
   0.09042              -28.72          35.67          9.542          35.33         -12.35         -17.54          43.81          46.39         -32.14          94.51          123.3
   0.09574              -28.72          35.65          9.569          35.33         -12.35         -17.53          43.83          46.41         -32.06          94.52          123.3
    0.1011              -28.71          35.62          9.599          35.33         -12.34         -17.51          43.86          46.43         -31.98          94.53          123.3
    0.1064               -28.7           35.6          9.631          35.34         -12.34          -17.5          43.89          46.45         -31.89          94.54          123.3
    0.1117              -28.69          35.57          9.667          35.34         -12.33         -17.48          43.92          46.47         -31.79          94.55          123.4
     0.117              -28.68          35.54          9.706          35.34         -12.33         -17.46          43.96           46.5         -31.68          94.56          123.4
    0.1223              -28.66          35.51           9.75          35.35         -12.32         -17.44           44.0          46.53         -31.55          94.58          123.4
    0.1277              -28.65          35.47          9.798          35.35         -12.31         -17.42          44.04          46.57         -31.42          94.59          123.4
     0.133              -28.63          35.43          9.852          35.36          -12.3         -17.39          44.09           46.6         -31.27          94.61          123.4
    0.1383              -28.62          35.39          9.913          35.36         -12.29         -17.36          44.15          46.65          -31.1          94.62          123.4
